<?xml version="1.0" encoding="UTF-8" standalone="no"?>
<svg
   width="299.99844"
   height="108.12719"
   viewBox="0 0 299.99844 108.12719"
   fill="none"
   version="1.1"
   id="svg206"
   sodipodi:docname="cytoplot_logo.svg"
   inkscape:version="1.3.2 (091e20ef0f, 2023-11-25)"
   inkscape:export-filename="cytoplot.png"
   inkscape:export-xdpi="96.000496"
   inkscape:export-ydpi="96.000496"
   xmlns:inkscape="http://www.inkscape.org/namespaces/inkscape"
   xmlns:sodipodi="http://sodipodi.sourceforge.net/DTD/sodipodi-0.dtd"
   xmlns="http://www.w3.org/2000/svg"
   xmlns:svg="http://www.w3.org/2000/svg">
  <defs
     id="defs210" />
  <sodipodi:namedview
     id="namedview208"
     pagecolor="#ffffff"
     bordercolor="#666666"
     borderopacity="1.0"
     inkscape:showpageshadow="2"
     inkscape:pageopacity="0.0"
     inkscape:pagecheckerboard="0"
     inkscape:deskcolor="#d1d1d1"
     showgrid="true"
     inkscape:zoom="1.674359"
     inkscape:cx="141.84533"
     inkscape:cy="-53.15467"
     inkscape:window-width="1876"
     inkscape:window-height="1032"
     inkscape:window-x="0"
     inkscape:window-y="0"
     inkscape:window-maximized="1"
     inkscape:current-layer="svg206">
    <inkscape:grid
       type="xygrid"
       id="grid1694"
       originx="0"
       originy="0"
       spacingy="1"
       spacingx="1"
       units="px"
       visible="true" />
  </sodipodi:namedview>
  <path
     d="m 28,50 v 7 h 18 v -7 z"
     fill="#1488dc"
     id="path192"
     style="stroke:none;stroke-width:0.999997;stroke-miterlimit:2.6;stroke-dasharray:none;stroke-opacity:1" />
  <path
     d="m 64.999998,50 v 7 H 102 v -7 z"
     fill="#1488dc"
     id="path194"
     style="stroke:none;stroke-width:1;stroke-miterlimit:2.6;stroke-dasharray:none;stroke-opacity:1" />
  <path
     d="m 36.000001,22 v 7 h 37.000001 v -7 z"
     fill="#1488dc"
     id="path196"
     style="stroke:none;stroke-width:1;stroke-miterlimit:2.6;stroke-dasharray:none;stroke-opacity:1" />
  <path
     d="m 37.000001,78 v 7 h 37.000001 v -7 z"
     fill="#1488dc"
     id="path198"
     style="stroke:none;stroke-width:1;stroke-miterlimit:2.6;stroke-dasharray:none;stroke-opacity:1" />
  <path
     d="m 32,36 v 7 h 55 v -7 z"
     fill="#1488dc"
     id="path200"
     style="stroke:none;stroke-width:1;stroke-miterlimit:2.6;stroke-dasharray:none;stroke-opacity:1" />
  <path
     d="m 32,64 v 7 h 55 v -7 z"
     fill="#1488dc"
     id="path202"
     style="stroke:none;stroke-width:1;stroke-miterlimit:2.6;stroke-dasharray:none;stroke-opacity:1" />
  <path
     d="m 135.83503,70.562969 c -1.88278,0 -3.53663,-0.36306 -4.96157,-1.089181 -1.42494,-0.75335 -2.5413,-1.802191 -3.34806,-3.146523 -0.77953,-1.371561 -1.1698,-2.944823 -1.1698,-4.719784 v -11.09351 c 0,-1.747732 0.39027,-3.294772 1.1698,-4.639104 0.80676,-1.344332 1.92312,-2.380062 3.34806,-3.106183 1.42494,-0.75335 3.07879,-1.129521 4.96157,-1.129521 1.88278,0 3.53663,0.36306 4.96157,1.089181 1.42494,0.726121 2.52819,1.747732 3.30772,3.065843 0.80676,1.31811 1.21014,2.836913 1.21014,4.558424 0,0.13413 -0.0403,0.24204 -0.12101,0.32272 -0.0807,0.08068 -0.17447,0.12102 -0.28237,0.12102 l -2.05724,0.12102 c -0.26925,0 -0.40338,-0.12102 -0.40338,-0.36306 v -0.12102 c 0,-1.909092 -0.60507,-3.428903 -1.81521,-4.558424 -1.21014,-1.156751 -2.81055,-1.734622 -4.80022,-1.734622 -1.98967,0 -3.59008,0.577871 -4.80022,1.734622 -1.21014,1.15675 -1.81521,2.675553 -1.81521,4.558424 v 11.29521 c 0,1.882871 0.60507,3.401674 1.81521,4.558424 1.21014,1.156751 2.81055,1.734622 4.80022,1.734622 1.98967,0 3.59008,-0.564761 4.80022,-1.694282 1.21014,-1.15675 1.81521,-2.689672 1.81521,-4.598764 v -0.08068 c 0,-0.24204 0.13413,-0.36306 0.40338,-0.36306 l 2.05724,0.12102 c 0.26926,0 0.40338,0.12102 0.40338,0.36306 0,1.747732 -0.40338,3.294772 -1.21014,4.639104 -0.77953,1.318111 -1.88278,2.339722 -3.30772,3.065843 -1.42494,0.726121 -3.07879,1.089181 -4.96157,1.089181 z m 14.41781,7.704947 c -0.18858,0 -0.28237,-0.134131 -0.28237,-0.403401 v -1.613601 c 0,-0.26927 0.13413,-0.4034 0.40338,-0.4034 h 0.16136 c 1.04878,-0.02723 1.85554,-0.18859 2.42028,-0.484081 0.59196,-0.26927 1.08912,-0.79369 1.4925,-1.573261 0.43061,-0.75335 0.88744,-1.909092 1.37149,-3.469243 0.0534,-0.10791 0.0534,-0.18859 0,-0.242041 l -6.81712,-19.847297 -0.0403,-0.16136 c 0,-0.18859 0.12102,-0.282381 0.36305,-0.282381 h 2.13791 c 0.24203,0 0.40338,0.10791 0.48406,0.322721 l 5.24394,16.297374 c 0.0272,0.05345 0.0676,0.08068 0.12101,0.08068 0.0534,0 0.0938,-0.02723 0.12101,-0.08068 l 5.16327,-16.297374 c 0.0807,-0.214811 0.24203,-0.322721 0.48405,-0.322721 h 2.09758 c 0.29548,0 0.40338,0.14825 0.3227,0.443741 l -7.46253,21.743279 c -0.6454,1.802191 -1.25047,3.133412 -1.81521,3.993664 -0.56473,0.860251 -1.2777,1.452241 -2.13791,1.774961 -0.83399,0.34995 -2.0169,0.524421 -3.54974,0.524421 z m 28.67729,-26.503404 c 0,0.26927 -0.13412,0.4034 -0.40338,0.4034 h -4.55819 c -0.1069,0 -0.16135,0.05345 -0.16135,0.161361 v 11.90031 c 0,1.290881 0.28236,2.205592 0.84709,2.743123 0.59196,0.51131 1.50663,0.76646 2.74299,0.76646 h 1.00845 c 0.26926,0 0.40338,0.134131 0.40338,0.403401 v 1.653941 c 0,0.26927 -0.13412,0.403401 -0.40338,0.403401 -0.32271,0.02723 -0.81987,0.04034 -1.49251,0.04034 -1.93622,0 -3.4015,-0.363061 -4.39684,-1.089181 -0.99433,-0.726121 -1.49251,-2.070453 -1.49251,-4.034004 V 52.329273 c 0,-0.10791 -0.0534,-0.161361 -0.16135,-0.161361 h -2.46062 c -0.26824,0 -0.40338,-0.13413 -0.40338,-0.4034 v -1.573261 c 0,-0.26927 0.13514,-0.403401 0.40338,-0.403401 h 2.46062 c 0.10791,0 0.16135,-0.05345 0.16135,-0.16136 v -4.679444 c 0,-0.26927 0.13514,-0.4034 0.40338,-0.4034 h 1.97657 c 0.26925,0 0.40338,0.13413 0.40338,0.4034 v 4.679444 c 0,0.10791 0.0545,0.16136 0.16135,0.16136 h 4.55819 c 0.26926,0 0.40338,0.134131 0.40338,0.403401 z m 12.73168,18.758117 c -1.93622,0 -3.6042,-0.497191 -5.00191,-1.492581 -1.39872,-0.995391 -2.36683,-2.366952 -2.90433,-4.114684 -0.37716,-1.237431 -0.56474,-2.891372 -0.56474,-4.961825 0,-2.070452 0.18758,-3.711283 0.56474,-4.921484 0.51027,-1.721511 1.46527,-3.078953 2.86399,-4.074344 1.39772,-0.99539 3.09191,-1.492581 5.08259,-1.492581 1.909,0 3.54975,0.497191 4.92124,1.492581 1.39771,0.995391 2.35271,2.339722 2.864,4.034004 0.37615,1.156751 0.56473,2.810692 0.56473,4.961824 0,2.178362 -0.18858,3.832304 -0.56473,4.961825 -0.51129,1.747732 -1.46629,3.119293 -2.864,4.114684 -1.37149,0.99539 -3.02535,1.492581 -4.96158,1.492581 z m 0,-2.501082 c 1.29082,0 2.39306,-0.34995 3.30772,-1.048841 0.91366,-0.726121 1.53284,-1.694282 1.85555,-2.904483 0.24203,-0.968161 0.36304,-2.326611 0.36304,-4.074344 0,-1.774961 -0.1079,-3.133412 -0.3227,-4.074343 -0.32271,-1.210201 -0.95501,-2.165252 -1.89589,-2.864143 -0.91466,-0.72612 -2.03102,-1.089181 -3.34805,-1.089181 -1.31805,0 -2.4344,0.363061 -3.34806,1.089181 -0.91466,0.698891 -1.53284,1.653942 -1.85555,2.864143 -0.2158,0.940931 -0.3227,2.299382 -0.3227,4.074343 0,1.774962 0.1069,3.133413 0.3227,4.074344 0.29548,1.210201 0.90055,2.178362 1.81521,2.904483 0.94089,0.698891 2.08346,1.048841 3.42873,1.048841 z M 217.1524,41.921543 c 2.36583,0 4.26171,0.726121 5.68766,2.178362 1.45217,1.452242 2.17825,3.361334 2.17825,5.728285 0,2.339722 -0.7402,4.222594 -2.21859,5.647605 -1.45216,1.425012 -3.37528,2.138022 -5.76833,2.138022 h -7.86591 c -0.1079,0 -0.16135,0.05345 -0.16135,0.16136 v 12.021331 c 0,0.26927 -0.13513,0.403401 -0.40338,0.403401 h -2.05724 c -0.26926,0 -0.40338,-0.134131 -0.40338,-0.403401 V 42.324944 c 0,-0.26927 0.13412,-0.403401 0.40338,-0.403401 z m -0.3227,13.312212 c 1.58629,0 2.87711,-0.48408 3.87245,-1.452241 0.99433,-0.99539 1.4925,-2.299382 1.4925,-3.912984 0,-1.640831 -0.49817,-2.957933 -1.4925,-3.953323 -0.99534,-0.99539 -2.28616,-1.492581 -3.87245,-1.492581 h -7.66422 c -0.1079,0 -0.16135,0.05345 -0.16135,0.16136 v 10.488409 c 0,0.10791 0.0534,0.16136 0.16135,0.16136 z m 13.30347,14.966154 c -0.26925,0 -0.40338,-0.134131 -0.40338,-0.403401 V 42.365284 c 0,-0.26927 0.13413,-0.403401 0.40338,-0.403401 h 2.05724 c 0.26825,0 0.40338,0.134131 0.40338,0.403401 v 27.431224 c 0,0.26927 -0.13513,0.403401 -0.40338,0.403401 z m 16.67775,0.32272 c -1.93622,0 -3.60319,-0.497191 -5.00191,-1.492581 -1.39771,-0.995391 -2.36583,-2.366952 -2.90434,-4.114684 -0.37615,-1.237431 -0.56473,-2.891372 -0.56473,-4.961825 0,-2.070452 0.18858,-3.711283 0.56473,-4.921484 0.51129,-1.721511 1.46629,-3.078953 2.864,-4.074344 1.39872,-0.99539 3.09292,-1.492581 5.08259,-1.492581 1.91,0 3.54974,0.497191 4.92123,1.492581 1.39872,0.995391 2.35373,2.339722 2.864,4.034004 0.37716,1.156751 0.56473,2.810692 0.56473,4.961824 0,2.178362 -0.18757,3.832304 -0.56473,4.961825 -0.51027,1.747732 -1.46528,3.119293 -2.864,4.114684 -1.37149,0.99539 -3.02535,1.492581 -4.96157,1.492581 z m 0,-2.501082 c 1.29082,0 2.39406,-0.34995 3.30772,-1.048841 0.91466,-0.726121 1.53284,-1.694282 1.85554,-2.904483 0.24203,-0.968161 0.36305,-2.326611 0.36305,-4.074344 0,-1.774961 -0.1069,-3.133412 -0.32271,-4.074343 -0.3227,-1.210201 -0.95399,-2.165252 -1.89588,-2.864143 -0.91366,-0.72612 -2.03001,-1.089181 -3.34806,-1.089181 -1.31703,0 -2.43339,0.363061 -3.34805,1.089181 -0.91366,0.698891 -1.53285,1.653942 -1.85555,2.864143 -0.2148,0.940931 -0.3227,2.299382 -0.3227,4.074343 0,1.774962 0.1079,3.133413 0.3227,4.074344 0.29648,1.210201 0.90155,2.178362 1.81521,2.904483 0.94189,0.698891 2.08447,1.048841 3.42873,1.048841 z m 23.1167,-16.257035 c 0,0.26927 -0.13513,0.4034 -0.40338,0.4034 h -4.5582 c -0.1079,0 -0.16135,0.05345 -0.16135,0.161361 v 11.90031 c 0,1.290881 0.28237,2.205592 0.8471,2.743123 0.59095,0.51131 1.50562,0.76646 2.74298,0.76646 h 1.00845 c 0.26825,0 0.40338,0.134131 0.40338,0.403401 v 1.653941 c 0,0.26927 -0.13513,0.403401 -0.40338,0.403401 -0.3227,0.02723 -0.82087,0.04034 -1.4925,0.04034 -1.93623,0 -3.40251,-0.363061 -4.39684,-1.089181 -0.99534,-0.726121 -1.49251,-2.070453 -1.49251,-4.034004 V 52.329273 c 0,-0.10791 -0.0545,-0.161361 -0.16135,-0.161361 h -2.46062 c -0.26926,0 -0.40338,-0.13413 -0.40338,-0.4034 v -1.573261 c 0,-0.26927 0.13412,-0.403401 0.40338,-0.403401 h 2.46062 c 0.10689,0 0.16135,-0.05345 0.16135,-0.16136 v -4.679444 c 0,-0.26927 0.13412,-0.4034 0.40338,-0.4034 h 1.97656 c 0.26825,0 0.40338,0.13413 0.40338,0.4034 v 4.679444 c 0,0.10791 0.0534,0.16136 0.16135,0.16136 h 4.5582 c 0.26825,0 0.40338,0.134131 0.40338,0.403401 z"
     fill="#1488dc"
     id="path204"
     style="stroke:none;stroke-width:1;stroke-miterlimit:2.6;stroke-dasharray:none;stroke-opacity:1" />
</svg>
